# xmcd
# Copyright (C) 1995-1998 Ti Kan
#
# Track frame offsets:
#       150
#       18782
#       35650
#       48375
#       71612
#       81785
#       104095
#       118120
#       136822
#       151400
#       166933
#       176617
#
# Disc length: 2569 seconds
#
# Revision: 0
# Processed by: cddbd v1.4PL0 Copyright (c) Steve Scherf et al.
# Submitted via: CD-Transfer v1.0
#
DISCID=9b0a070c
DTITLE=Alphorny - Ruf, Hochuli, Schär, Milde
DYEAR=97
DGENRE=
TTITLE0=Im Heustock
TTITLE1=Ächti Buure
TTITLE2=Uf Dr Alp
TTITLE3=Bärgstiiger
TTITLE4=Alpeluft
TTITLE5=Du Frogsch Mit Wär I Be
TTITLE6=Traktörli
TTITLE7=S'isch Schön Mit Dr Gsy
TTITLE8=Landläbe
TTITLE9=Mir Buure Hei's Luschtig
TTITLE10=Es Lyt Es Chlises Dörfli
TTITLE11=Stets I Truure
EXTD=
EXTT0=
EXTT1=
EXTT2=
EXTT3=
EXTT4=
EXTT5=
EXTT6=
EXTT7=
EXTT8=
EXTT9=
EXTT10=
EXTT11=
PLAYORDER=
